<?xml version="1.0" encoding="utf-8" standalone="no"?>
<!DOCTYPE svg PUBLIC "-//W3C//DTD SVG 1.1//EN"
  "http://www.w3.org/Graphics/SVG/1.1/DTD/svg11.dtd">
<svg xmlns:xlink="http://www.w3.org/1999/xlink" width="444.468125pt" height="156.478125pt" viewBox="0 0 444.468125 156.478125" xmlns="http://www.w3.org/2000/svg" version="1.1">
 <metadata>
  <rdf:RDF xmlns:dc="http://purl.org/dc/elements/1.1/" xmlns:cc="http://creativecommons.org/ns#" xmlns:rdf="http://www.w3.org/1999/02/22-rdf-syntax-ns#">
   <cc:Work>
    <dc:type rdf:resource="http://purl.org/dc/dcmitype/StillImage"/>
    <dc:date>2025-10-26T17:37:33.030957</dc:date>
    <dc:format>image/svg+xml</dc:format>
    <dc:creator>
     <cc:Agent>
      <dc:title>Matplotlib v3.10.7, https://matplotlib.org/</dc:title>
     </cc:Agent>
    </dc:creator>
   </cc:Work>
  </rdf:RDF>
 </metadata>
 <defs>
  <style type="text/css">*{stroke-linejoin: round; stroke-linecap: butt}</style>
 </defs>
 <g id="figure_1">
  <g id="patch_1">
   <path d="M 0 156.478125 
L 444.468125 156.478125 
L 444.468125 0 
L 0 0 
z
" style="fill: #ffffff"/>
  </g>
  <g id="axes_1">
   <g id="patch_2">
    <path d="M 51.228125 132.6 
L 437.268125 132.6 
L 437.268125 7.2 
L 51.228125 7.2 
z
" style="fill: #ffffff"/>
   </g>
   <g id="matplotlib.axis_1">
    <g id="xtick_1">
     <g id="line2d_1">
      <defs>
       <path id="mecb7267651" d="M 0 0 
L 0 3.5 
" style="stroke: #000000; stroke-width: 0.8"/>
      </defs>
      <g>
       <use xlink:href="#mecb7267651" x="58.453473" y="132.6" style="stroke: #000000; stroke-width: 0.8"/>
      </g>
     </g>
     <g id="text_1">
      <!-- 2.5 -->
      <g transform="translate(50.50191 147.198438) scale(0.1 -0.1)">
       <defs>
        <path id="DejaVuSans-32" d="M 1228 531 
L 3431 531 
L 3431 0 
L 469 0 
L 469 531 
Q 828 903 1448 1529 
Q 2069 2156 2228 2338 
Q 2531 2678 2651 2914 
Q 2772 3150 2772 3378 
Q 2772 3750 2511 3984 
Q 2250 4219 1831 4219 
Q 1534 4219 1204 4116 
Q 875 4013 500 3803 
L 500 4441 
Q 881 4594 1212 4672 
Q 1544 4750 1819 4750 
Q 2544 4750 2975 4387 
Q 3406 4025 3406 3419 
Q 3406 3131 3298 2873 
Q 3191 2616 2906 2266 
Q 2828 2175 2409 1742 
Q 1991 1309 1228 531 
z
" transform="scale(0.015625)"/>
        <path id="DejaVuSans-2e" d="M 684 794 
L 1344 794 
L 1344 0 
L 684 0 
L 684 794 
z
" transform="scale(0.015625)"/>
        <path id="DejaVuSans-35" d="M 691 4666 
L 3169 4666 
L 3169 4134 
L 1269 4134 
L 1269 2991 
Q 1406 3038 1543 3061 
Q 1681 3084 1819 3084 
Q 2600 3084 3056 2656 
Q 3513 2228 3513 1497 
Q 3513 744 3044 326 
Q 2575 -91 1722 -91 
Q 1428 -91 1123 -41 
Q 819 9 494 109 
L 494 744 
Q 775 591 1075 516 
Q 1375 441 1709 441 
Q 2250 441 2565 725 
Q 2881 1009 2881 1497 
Q 2881 1984 2565 2268 
Q 2250 2553 1709 2553 
Q 1456 2553 1204 2497 
Q 953 2441 691 2322 
L 691 4666 
z
" transform="scale(0.015625)"/>
       </defs>
       <use xlink:href="#DejaVuSans-32"/>
       <use xlink:href="#DejaVuSans-2e" transform="translate(63.623047 0)"/>
       <use xlink:href="#DejaVuSans-35" transform="translate(95.410156 0)"/>
      </g>
     </g>
    </g>
    <g id="xtick_2">
     <g id="line2d_2">
      <g>
       <use xlink:href="#mecb7267651" x="110.063098" y="132.6" style="stroke: #000000; stroke-width: 0.8"/>
      </g>
     </g>
     <g id="text_2">
      <!-- 5.0 -->
      <g transform="translate(102.111536 147.198438) scale(0.1 -0.1)">
       <defs>
        <path id="DejaVuSans-30" d="M 2034 4250 
Q 1547 4250 1301 3770 
Q 1056 3291 1056 2328 
Q 1056 1369 1301 889 
Q 1547 409 2034 409 
Q 2525 409 2770 889 
Q 3016 1369 3016 2328 
Q 3016 3291 2770 3770 
Q 2525 4250 2034 4250 
z
M 2034 4750 
Q 2819 4750 3233 4129 
Q 3647 3509 3647 2328 
Q 3647 1150 3233 529 
Q 2819 -91 2034 -91 
Q 1250 -91 836 529 
Q 422 1150 422 2328 
Q 422 3509 836 4129 
Q 1250 4750 2034 4750 
z
" transform="scale(0.015625)"/>
       </defs>
       <use xlink:href="#DejaVuSans-35"/>
       <use xlink:href="#DejaVuSans-2e" transform="translate(63.623047 0)"/>
       <use xlink:href="#DejaVuSans-30" transform="translate(95.410156 0)"/>
      </g>
     </g>
    </g>
    <g id="xtick_3">
     <g id="line2d_3">
      <g>
       <use xlink:href="#mecb7267651" x="161.672724" y="132.6" style="stroke: #000000; stroke-width: 0.8"/>
      </g>
     </g>
     <g id="text_3">
      <!-- 7.5 -->
      <g transform="translate(153.721161 147.198438) scale(0.1 -0.1)">
       <defs>
        <path id="DejaVuSans-37" d="M 525 4666 
L 3525 4666 
L 3525 4397 
L 1831 0 
L 1172 0 
L 2766 4134 
L 525 4134 
L 525 4666 
z
" transform="scale(0.015625)"/>
       </defs>
       <use xlink:href="#DejaVuSans-37"/>
       <use xlink:href="#DejaVuSans-2e" transform="translate(63.623047 0)"/>
       <use xlink:href="#DejaVuSans-35" transform="translate(95.410156 0)"/>
      </g>
     </g>
    </g>
    <g id="xtick_4">
     <g id="line2d_4">
      <g>
       <use xlink:href="#mecb7267651" x="213.28235" y="132.6" style="stroke: #000000; stroke-width: 0.8"/>
      </g>
     </g>
     <g id="text_4">
      <!-- 10.0 -->
      <g transform="translate(202.149537 147.198438) scale(0.1 -0.1)">
       <defs>
        <path id="DejaVuSans-31" d="M 794 531 
L 1825 531 
L 1825 4091 
L 703 3866 
L 703 4441 
L 1819 4666 
L 2450 4666 
L 2450 531 
L 3481 531 
L 3481 0 
L 794 0 
L 794 531 
z
" transform="scale(0.015625)"/>
       </defs>
       <use xlink:href="#DejaVuSans-31"/>
       <use xlink:href="#DejaVuSans-30" transform="translate(63.623047 0)"/>
       <use xlink:href="#DejaVuSans-2e" transform="translate(127.246094 0)"/>
       <use xlink:href="#DejaVuSans-30" transform="translate(159.033203 0)"/>
      </g>
     </g>
    </g>
    <g id="xtick_5">
     <g id="line2d_5">
      <g>
       <use xlink:href="#mecb7267651" x="264.891975" y="132.6" style="stroke: #000000; stroke-width: 0.8"/>
      </g>
     </g>
     <g id="text_5">
      <!-- 12.5 -->
      <g transform="translate(253.759163 147.198438) scale(0.1 -0.1)">
       <use xlink:href="#DejaVuSans-31"/>
       <use xlink:href="#DejaVuSans-32" transform="translate(63.623047 0)"/>
       <use xlink:href="#DejaVuSans-2e" transform="translate(127.246094 0)"/>
       <use xlink:href="#DejaVuSans-35" transform="translate(159.033203 0)"/>
      </g>
     </g>
    </g>
    <g id="xtick_6">
     <g id="line2d_6">
      <g>
       <use xlink:href="#mecb7267651" x="316.501601" y="132.6" style="stroke: #000000; stroke-width: 0.8"/>
      </g>
     </g>
     <g id="text_6">
      <!-- 15.0 -->
      <g transform="translate(305.368788 147.198438) scale(0.1 -0.1)">
       <use xlink:href="#DejaVuSans-31"/>
       <use xlink:href="#DejaVuSans-35" transform="translate(63.623047 0)"/>
       <use xlink:href="#DejaVuSans-2e" transform="translate(127.246094 0)"/>
       <use xlink:href="#DejaVuSans-30" transform="translate(159.033203 0)"/>
      </g>
     </g>
    </g>
    <g id="xtick_7">
     <g id="line2d_7">
      <g>
       <use xlink:href="#mecb7267651" x="368.111227" y="132.6" style="stroke: #000000; stroke-width: 0.8"/>
      </g>
     </g>
     <g id="text_7">
      <!-- 17.5 -->
      <g transform="translate(356.978414 147.198438) scale(0.1 -0.1)">
       <use xlink:href="#DejaVuSans-31"/>
       <use xlink:href="#DejaVuSans-37" transform="translate(63.623047 0)"/>
       <use xlink:href="#DejaVuSans-2e" transform="translate(127.246094 0)"/>
       <use xlink:href="#DejaVuSans-35" transform="translate(159.033203 0)"/>
      </g>
     </g>
    </g>
    <g id="xtick_8">
     <g id="line2d_8">
      <g>
       <use xlink:href="#mecb7267651" x="419.720852" y="132.6" style="stroke: #000000; stroke-width: 0.8"/>
      </g>
     </g>
     <g id="text_8">
      <!-- 20.0 -->
      <g transform="translate(408.58804 147.198438) scale(0.1 -0.1)">
       <use xlink:href="#DejaVuSans-32"/>
       <use xlink:href="#DejaVuSans-30" transform="translate(63.623047 0)"/>
       <use xlink:href="#DejaVuSans-2e" transform="translate(127.246094 0)"/>
       <use xlink:href="#DejaVuSans-30" transform="translate(159.033203 0)"/>
      </g>
     </g>
    </g>
   </g>
   <g id="matplotlib.axis_2">
    <g id="ytick_1">
     <g id="line2d_9">
      <defs>
       <path id="mec90d866bd" d="M 0 0 
L -3.5 0 
" style="stroke: #000000; stroke-width: 0.8"/>
      </defs>
      <g>
       <use xlink:href="#mec90d866bd" x="51.228125" y="101.25" style="stroke: #000000; stroke-width: 0.8"/>
      </g>
     </g>
     <g id="text_9">
      <!-- Java 8 -->
      <g transform="translate(13.5625 105.049219) scale(0.1 -0.1)">
       <defs>
        <path id="DejaVuSans-4a" d="M 628 4666 
L 1259 4666 
L 1259 325 
Q 1259 -519 939 -900 
Q 619 -1281 -91 -1281 
L -331 -1281 
L -331 -750 
L -134 -750 
Q 284 -750 456 -515 
Q 628 -281 628 325 
L 628 4666 
z
" transform="scale(0.015625)"/>
        <path id="DejaVuSans-61" d="M 2194 1759 
Q 1497 1759 1228 1600 
Q 959 1441 959 1056 
Q 959 750 1161 570 
Q 1363 391 1709 391 
Q 2188 391 2477 730 
Q 2766 1069 2766 1631 
L 2766 1759 
L 2194 1759 
z
M 3341 1997 
L 3341 0 
L 2766 0 
L 2766 531 
Q 2569 213 2275 61 
Q 1981 -91 1556 -91 
Q 1019 -91 701 211 
Q 384 513 384 1019 
Q 384 1609 779 1909 
Q 1175 2209 1959 2209 
L 2766 2209 
L 2766 2266 
Q 2766 2663 2505 2880 
Q 2244 3097 1772 3097 
Q 1472 3097 1187 3025 
Q 903 2953 641 2809 
L 641 3341 
Q 956 3463 1253 3523 
Q 1550 3584 1831 3584 
Q 2591 3584 2966 3190 
Q 3341 2797 3341 1997 
z
" transform="scale(0.015625)"/>
        <path id="DejaVuSans-76" d="M 191 3500 
L 800 3500 
L 1894 563 
L 2988 3500 
L 3597 3500 
L 2284 0 
L 1503 0 
L 191 3500 
z
" transform="scale(0.015625)"/>
        <path id="DejaVuSans-20" transform="scale(0.015625)"/>
        <path id="DejaVuSans-38" d="M 2034 2216 
Q 1584 2216 1326 1975 
Q 1069 1734 1069 1313 
Q 1069 891 1326 650 
Q 1584 409 2034 409 
Q 2484 409 2743 651 
Q 3003 894 3003 1313 
Q 3003 1734 2745 1975 
Q 2488 2216 2034 2216 
z
M 1403 2484 
Q 997 2584 770 2862 
Q 544 3141 544 3541 
Q 544 4100 942 4425 
Q 1341 4750 2034 4750 
Q 2731 4750 3128 4425 
Q 3525 4100 3525 3541 
Q 3525 3141 3298 2862 
Q 3072 2584 2669 2484 
Q 3125 2378 3379 2068 
Q 3634 1759 3634 1313 
Q 3634 634 3220 271 
Q 2806 -91 2034 -91 
Q 1263 -91 848 271 
Q 434 634 434 1313 
Q 434 1759 690 2068 
Q 947 2378 1403 2484 
z
M 1172 3481 
Q 1172 3119 1398 2916 
Q 1625 2713 2034 2713 
Q 2441 2713 2670 2916 
Q 2900 3119 2900 3481 
Q 2900 3844 2670 4047 
Q 2441 4250 2034 4250 
Q 1625 4250 1398 4047 
Q 1172 3844 1172 3481 
z
" transform="scale(0.015625)"/>
       </defs>
       <use xlink:href="#DejaVuSans-4a"/>
       <use xlink:href="#DejaVuSans-61" transform="translate(29.492188 0)"/>
       <use xlink:href="#DejaVuSans-76" transform="translate(90.771484 0)"/>
       <use xlink:href="#DejaVuSans-61" transform="translate(149.951172 0)"/>
       <use xlink:href="#DejaVuSans-20" transform="translate(211.230469 0)"/>
       <use xlink:href="#DejaVuSans-38" transform="translate(243.017578 0)"/>
      </g>
     </g>
    </g>
    <g id="ytick_2">
     <g id="line2d_10">
      <g>
       <use xlink:href="#mec90d866bd" x="51.228125" y="69.9" style="stroke: #000000; stroke-width: 0.8"/>
      </g>
     </g>
     <g id="text_10">
      <!-- Java 11 -->
      <g transform="translate(7.2 73.699219) scale(0.1 -0.1)">
       <use xlink:href="#DejaVuSans-4a"/>
       <use xlink:href="#DejaVuSans-61" transform="translate(29.492188 0)"/>
       <use xlink:href="#DejaVuSans-76" transform="translate(90.771484 0)"/>
       <use xlink:href="#DejaVuSans-61" transform="translate(149.951172 0)"/>
       <use xlink:href="#DejaVuSans-20" transform="translate(211.230469 0)"/>
       <use xlink:href="#DejaVuSans-31" transform="translate(243.017578 0)"/>
       <use xlink:href="#DejaVuSans-31" transform="translate(306.640625 0)"/>
      </g>
     </g>
    </g>
   </g>
   <g id="patch_3">
    <path d="M 151.350799 113.79 
L 151.350799 88.71 
L 254.57005 88.71 
L 254.57005 113.79 
L 151.350799 113.79 
z
" clip-path="url(#p06d131c635)" style="fill: #87ceeb; opacity: 0.7; stroke: #000000; stroke-linejoin: miter"/>
   </g>
   <g id="line2d_11">
    <path d="M 151.350799 101.25 
L 89.419248 101.25 
" clip-path="url(#p06d131c635)" style="fill: none; stroke: #000000; stroke-linecap: square"/>
   </g>
   <g id="line2d_12">
    <path d="M 254.57005 101.25 
L 378.433152 101.25 
" clip-path="url(#p06d131c635)" style="fill: none; stroke: #000000; stroke-linecap: square"/>
   </g>
   <g id="line2d_13">
    <path d="M 89.419248 107.52 
L 89.419248 94.98 
" clip-path="url(#p06d131c635)" style="fill: none; stroke: #000000; stroke-linecap: square"/>
   </g>
   <g id="line2d_14">
    <path d="M 378.433152 107.52 
L 378.433152 94.98 
" clip-path="url(#p06d131c635)" style="fill: none; stroke: #000000; stroke-linecap: square"/>
   </g>
   <g id="patch_4">
    <path d="M 110.063098 82.44 
L 110.063098 57.36 
L 233.9262 57.36 
L 233.9262 82.44 
L 110.063098 82.44 
z
" clip-path="url(#p06d131c635)" style="fill: #87ceeb; opacity: 0.7; stroke: #000000; stroke-linejoin: miter"/>
   </g>
   <g id="line2d_15">
    <path d="M 110.063098 69.9 
L 68.775398 69.9 
" clip-path="url(#p06d131c635)" style="fill: none; stroke: #000000; stroke-linecap: square"/>
   </g>
   <g id="line2d_16">
    <path d="M 233.9262 69.9 
L 419.720852 69.9 
" clip-path="url(#p06d131c635)" style="fill: none; stroke: #000000; stroke-linecap: square"/>
   </g>
   <g id="line2d_17">
    <path d="M 68.775398 76.17 
L 68.775398 63.63 
" clip-path="url(#p06d131c635)" style="fill: none; stroke: #000000; stroke-linecap: square"/>
   </g>
   <g id="line2d_18">
    <path d="M 419.720852 76.17 
L 419.720852 63.63 
" clip-path="url(#p06d131c635)" style="fill: none; stroke: #000000; stroke-linecap: square"/>
   </g>
   <g id="line2d_19">
    <path d="M 171.994649 113.79 
L 171.994649 88.71 
" clip-path="url(#p06d131c635)" style="fill: none; stroke: #ff7f0e"/>
   </g>
   <g id="line2d_20">
    <path d="M 151.350799 82.44 
L 151.350799 57.36 
" clip-path="url(#p06d131c635)" style="fill: none; stroke: #ff7f0e"/>
   </g>
   <g id="patch_5">
    <path d="M 51.228125 132.6 
L 51.228125 7.2 
" style="fill: none; stroke: #000000; stroke-width: 0.8; stroke-linejoin: miter; stroke-linecap: square"/>
   </g>
   <g id="patch_6">
    <path d="M 437.268125 132.6 
L 437.268125 7.2 
" style="fill: none; stroke: #000000; stroke-width: 0.8; stroke-linejoin: miter; stroke-linecap: square"/>
   </g>
   <g id="patch_7">
    <path d="M 51.228125 132.6 
L 437.268125 132.6 
" style="fill: none; stroke: #000000; stroke-width: 0.8; stroke-linejoin: miter; stroke-linecap: square"/>
   </g>
   <g id="patch_8">
    <path d="M 51.228125 7.2 
L 437.268125 7.2 
" style="fill: none; stroke: #000000; stroke-width: 0.8; stroke-linejoin: miter; stroke-linecap: square"/>
   </g>
   <g id="legend_1">
    <g id="patch_9">
     <path d="M 239.998125 60.57 
L 431.668125 60.57 
Q 433.268125 60.57 433.268125 58.97 
L 433.268125 12.8 
Q 433.268125 11.2 431.668125 11.2 
L 239.998125 11.2 
Q 238.398125 11.2 238.398125 12.8 
L 238.398125 58.97 
Q 238.398125 60.57 239.998125 60.57 
z
" style="fill: #ffffff; opacity: 0.8; stroke: #cccccc; stroke-linejoin: miter"/>
    </g>
    <g id="patch_10">
     <path d="M 241.598125 20.47875 
L 257.598125 20.47875 
L 257.598125 14.87875 
L 241.598125 14.87875 
z
" style="fill: #ffffff"/>
    </g>
    <g id="text_11">
     <!-- Java 8 IQR: 5.0,    Java 11 IQR: 6.0 -->
     <g transform="translate(263.998125 20.47875) scale(0.08 -0.08)">
      <defs>
       <path id="DejaVuSans-49" d="M 628 4666 
L 1259 4666 
L 1259 0 
L 628 0 
L 628 4666 
z
" transform="scale(0.015625)"/>
       <path id="DejaVuSans-51" d="M 2522 4238 
Q 1834 4238 1429 3725 
Q 1025 3213 1025 2328 
Q 1025 1447 1429 934 
Q 1834 422 2522 422 
Q 3209 422 3611 934 
Q 4013 1447 4013 2328 
Q 4013 3213 3611 3725 
Q 3209 4238 2522 4238 
z
M 3406 84 
L 4238 -825 
L 3475 -825 
L 2784 -78 
Q 2681 -84 2626 -87 
Q 2572 -91 2522 -91 
Q 1538 -91 948 567 
Q 359 1225 359 2328 
Q 359 3434 948 4092 
Q 1538 4750 2522 4750 
Q 3503 4750 4090 4092 
Q 4678 3434 4678 2328 
Q 4678 1516 4351 937 
Q 4025 359 3406 84 
z
" transform="scale(0.015625)"/>
       <path id="DejaVuSans-52" d="M 2841 2188 
Q 3044 2119 3236 1894 
Q 3428 1669 3622 1275 
L 4263 0 
L 3584 0 
L 2988 1197 
Q 2756 1666 2539 1819 
Q 2322 1972 1947 1972 
L 1259 1972 
L 1259 0 
L 628 0 
L 628 4666 
L 2053 4666 
Q 2853 4666 3247 4331 
Q 3641 3997 3641 3322 
Q 3641 2881 3436 2590 
Q 3231 2300 2841 2188 
z
M 1259 4147 
L 1259 2491 
L 2053 2491 
Q 2509 2491 2742 2702 
Q 2975 2913 2975 3322 
Q 2975 3731 2742 3939 
Q 2509 4147 2053 4147 
L 1259 4147 
z
" transform="scale(0.015625)"/>
       <path id="DejaVuSans-3a" d="M 750 794 
L 1409 794 
L 1409 0 
L 750 0 
L 750 794 
z
M 750 3309 
L 1409 3309 
L 1409 2516 
L 750 2516 
L 750 3309 
z
" transform="scale(0.015625)"/>
       <path id="DejaVuSans-2c" d="M 750 794 
L 1409 794 
L 1409 256 
L 897 -744 
L 494 -744 
L 750 256 
L 750 794 
z
" transform="scale(0.015625)"/>
       <path id="DejaVuSans-36" d="M 2113 2584 
Q 1688 2584 1439 2293 
Q 1191 2003 1191 1497 
Q 1191 994 1439 701 
Q 1688 409 2113 409 
Q 2538 409 2786 701 
Q 3034 994 3034 1497 
Q 3034 2003 2786 2293 
Q 2538 2584 2113 2584 
z
M 3366 4563 
L 3366 3988 
Q 3128 4100 2886 4159 
Q 2644 4219 2406 4219 
Q 1781 4219 1451 3797 
Q 1122 3375 1075 2522 
Q 1259 2794 1537 2939 
Q 1816 3084 2150 3084 
Q 2853 3084 3261 2657 
Q 3669 2231 3669 1497 
Q 3669 778 3244 343 
Q 2819 -91 2113 -91 
Q 1303 -91 875 529 
Q 447 1150 447 2328 
Q 447 3434 972 4092 
Q 1497 4750 2381 4750 
Q 2619 4750 2861 4703 
Q 3103 4656 3366 4563 
z
" transform="scale(0.015625)"/>
      </defs>
      <use xlink:href="#DejaVuSans-4a"/>
      <use xlink:href="#DejaVuSans-61" transform="translate(29.492188 0)"/>
      <use xlink:href="#DejaVuSans-76" transform="translate(90.771484 0)"/>
      <use xlink:href="#DejaVuSans-61" transform="translate(149.951172 0)"/>
      <use xlink:href="#DejaVuSans-20" transform="translate(211.230469 0)"/>
      <use xlink:href="#DejaVuSans-38" transform="translate(243.017578 0)"/>
      <use xlink:href="#DejaVuSans-20" transform="translate(306.640625 0)"/>
      <use xlink:href="#DejaVuSans-49" transform="translate(338.427734 0)"/>
      <use xlink:href="#DejaVuSans-51" transform="translate(367.919922 0)"/>
      <use xlink:href="#DejaVuSans-52" transform="translate(446.630859 0)"/>
      <use xlink:href="#DejaVuSans-3a" transform="translate(512.988281 0)"/>
      <use xlink:href="#DejaVuSans-20" transform="translate(546.679688 0)"/>
      <use xlink:href="#DejaVuSans-35" transform="translate(578.466797 0)"/>
      <use xlink:href="#DejaVuSans-2e" transform="translate(642.089844 0)"/>
      <use xlink:href="#DejaVuSans-30" transform="translate(673.876953 0)"/>
      <use xlink:href="#DejaVuSans-2c" transform="translate(737.5 0)"/>
      <use xlink:href="#DejaVuSans-20" transform="translate(769.287109 0)"/>
      <use xlink:href="#DejaVuSans-20" transform="translate(801.074219 0)"/>
      <use xlink:href="#DejaVuSans-20" transform="translate(832.861328 0)"/>
      <use xlink:href="#DejaVuSans-20" transform="translate(864.648438 0)"/>
      <use xlink:href="#DejaVuSans-4a" transform="translate(896.435547 0)"/>
      <use xlink:href="#DejaVuSans-61" transform="translate(925.927734 0)"/>
      <use xlink:href="#DejaVuSans-76" transform="translate(987.207031 0)"/>
      <use xlink:href="#DejaVuSans-61" transform="translate(1046.386719 0)"/>
      <use xlink:href="#DejaVuSans-20" transform="translate(1107.666016 0)"/>
      <use xlink:href="#DejaVuSans-31" transform="translate(1139.453125 0)"/>
      <use xlink:href="#DejaVuSans-31" transform="translate(1203.076172 0)"/>
      <use xlink:href="#DejaVuSans-20" transform="translate(1266.699219 0)"/>
      <use xlink:href="#DejaVuSans-49" transform="translate(1298.486328 0)"/>
      <use xlink:href="#DejaVuSans-51" transform="translate(1327.978516 0)"/>
      <use xlink:href="#DejaVuSans-52" transform="translate(1406.689453 0)"/>
      <use xlink:href="#DejaVuSans-3a" transform="translate(1473.046875 0)"/>
      <use xlink:href="#DejaVuSans-20" transform="translate(1506.738281 0)"/>
      <use xlink:href="#DejaVuSans-36" transform="translate(1538.525391 0)"/>
      <use xlink:href="#DejaVuSans-2e" transform="translate(1602.148438 0)"/>
      <use xlink:href="#DejaVuSans-30" transform="translate(1633.935547 0)"/>
     </g>
    </g>
    <g id="patch_11">
     <path d="M 241.598125 32.22125 
L 257.598125 32.22125 
L 257.598125 26.62125 
L 241.598125 26.62125 
z
" style="fill: #ffffff"/>
    </g>
    <g id="text_12">
     <!-- Java 8 Median: 8.0,    Java 11 Median: 7.0 -->
     <g transform="translate(263.998125 32.22125) scale(0.08 -0.08)">
      <defs>
       <path id="DejaVuSans-4d" d="M 628 4666 
L 1569 4666 
L 2759 1491 
L 3956 4666 
L 4897 4666 
L 4897 0 
L 4281 0 
L 4281 4097 
L 3078 897 
L 2444 897 
L 1241 4097 
L 1241 0 
L 628 0 
L 628 4666 
z
" transform="scale(0.015625)"/>
       <path id="DejaVuSans-65" d="M 3597 1894 
L 3597 1613 
L 953 1613 
Q 991 1019 1311 708 
Q 1631 397 2203 397 
Q 2534 397 2845 478 
Q 3156 559 3463 722 
L 3463 178 
Q 3153 47 2828 -22 
Q 2503 -91 2169 -91 
Q 1331 -91 842 396 
Q 353 884 353 1716 
Q 353 2575 817 3079 
Q 1281 3584 2069 3584 
Q 2775 3584 3186 3129 
Q 3597 2675 3597 1894 
z
M 3022 2063 
Q 3016 2534 2758 2815 
Q 2500 3097 2075 3097 
Q 1594 3097 1305 2825 
Q 1016 2553 972 2059 
L 3022 2063 
z
" transform="scale(0.015625)"/>
       <path id="DejaVuSans-64" d="M 2906 2969 
L 2906 4863 
L 3481 4863 
L 3481 0 
L 2906 0 
L 2906 525 
Q 2725 213 2448 61 
Q 2172 -91 1784 -91 
Q 1150 -91 751 415 
Q 353 922 353 1747 
Q 353 2572 751 3078 
Q 1150 3584 1784 3584 
Q 2172 3584 2448 3432 
Q 2725 3281 2906 2969 
z
M 947 1747 
Q 947 1113 1208 752 
Q 1469 391 1925 391 
Q 2381 391 2643 752 
Q 2906 1113 2906 1747 
Q 2906 2381 2643 2742 
Q 2381 3103 1925 3103 
Q 1469 3103 1208 2742 
Q 947 2381 947 1747 
z
" transform="scale(0.015625)"/>
       <path id="DejaVuSans-69" d="M 603 3500 
L 1178 3500 
L 1178 0 
L 603 0 
L 603 3500 
z
M 603 4863 
L 1178 4863 
L 1178 4134 
L 603 4134 
L 603 4863 
z
" transform="scale(0.015625)"/>
       <path id="DejaVuSans-6e" d="M 3513 2113 
L 3513 0 
L 2938 0 
L 2938 2094 
Q 2938 2591 2744 2837 
Q 2550 3084 2163 3084 
Q 1697 3084 1428 2787 
Q 1159 2491 1159 1978 
L 1159 0 
L 581 0 
L 581 3500 
L 1159 3500 
L 1159 2956 
Q 1366 3272 1645 3428 
Q 1925 3584 2291 3584 
Q 2894 3584 3203 3211 
Q 3513 2838 3513 2113 
z
" transform="scale(0.015625)"/>
      </defs>
      <use xlink:href="#DejaVuSans-4a"/>
      <use xlink:href="#DejaVuSans-61" transform="translate(29.492188 0)"/>
      <use xlink:href="#DejaVuSans-76" transform="translate(90.771484 0)"/>
      <use xlink:href="#DejaVuSans-61" transform="translate(149.951172 0)"/>
      <use xlink:href="#DejaVuSans-20" transform="translate(211.230469 0)"/>
      <use xlink:href="#DejaVuSans-38" transform="translate(243.017578 0)"/>
      <use xlink:href="#DejaVuSans-20" transform="translate(306.640625 0)"/>
      <use xlink:href="#DejaVuSans-4d" transform="translate(338.427734 0)"/>
      <use xlink:href="#DejaVuSans-65" transform="translate(424.707031 0)"/>
      <use xlink:href="#DejaVuSans-64" transform="translate(486.230469 0)"/>
      <use xlink:href="#DejaVuSans-69" transform="translate(549.707031 0)"/>
      <use xlink:href="#DejaVuSans-61" transform="translate(577.490234 0)"/>
      <use xlink:href="#DejaVuSans-6e" transform="translate(638.769531 0)"/>
      <use xlink:href="#DejaVuSans-3a" transform="translate(702.148438 0)"/>
      <use xlink:href="#DejaVuSans-20" transform="translate(735.839844 0)"/>
      <use xlink:href="#DejaVuSans-38" transform="translate(767.626953 0)"/>
      <use xlink:href="#DejaVuSans-2e" transform="translate(831.25 0)"/>
      <use xlink:href="#DejaVuSans-30" transform="translate(863.037109 0)"/>
      <use xlink:href="#DejaVuSans-2c" transform="translate(926.660156 0)"/>
      <use xlink:href="#DejaVuSans-20" transform="translate(958.447266 0)"/>
      <use xlink:href="#DejaVuSans-20" transform="translate(990.234375 0)"/>
      <use xlink:href="#DejaVuSans-20" transform="translate(1022.021484 0)"/>
      <use xlink:href="#DejaVuSans-20" transform="translate(1053.808594 0)"/>
      <use xlink:href="#DejaVuSans-4a" transform="translate(1085.595703 0)"/>
      <use xlink:href="#DejaVuSans-61" transform="translate(1115.087891 0)"/>
      <use xlink:href="#DejaVuSans-76" transform="translate(1176.367188 0)"/>
      <use xlink:href="#DejaVuSans-61" transform="translate(1235.546875 0)"/>
      <use xlink:href="#DejaVuSans-20" transform="translate(1296.826172 0)"/>
      <use xlink:href="#DejaVuSans-31" transform="translate(1328.613281 0)"/>
      <use xlink:href="#DejaVuSans-31" transform="translate(1392.236328 0)"/>
      <use xlink:href="#DejaVuSans-20" transform="translate(1455.859375 0)"/>
      <use xlink:href="#DejaVuSans-4d" transform="translate(1487.646484 0)"/>
      <use xlink:href="#DejaVuSans-65" transform="translate(1573.925781 0)"/>
      <use xlink:href="#DejaVuSans-64" transform="translate(1635.449219 0)"/>
      <use xlink:href="#DejaVuSans-69" transform="translate(1698.925781 0)"/>
      <use xlink:href="#DejaVuSans-61" transform="translate(1726.708984 0)"/>
      <use xlink:href="#DejaVuSans-6e" transform="translate(1787.988281 0)"/>
      <use xlink:href="#DejaVuSans-3a" transform="translate(1851.367188 0)"/>
      <use xlink:href="#DejaVuSans-20" transform="translate(1885.058594 0)"/>
      <use xlink:href="#DejaVuSans-37" transform="translate(1916.845703 0)"/>
      <use xlink:href="#DejaVuSans-2e" transform="translate(1980.46875 0)"/>
      <use xlink:href="#DejaVuSans-30" transform="translate(2012.255859 0)"/>
     </g>
    </g>
    <g id="patch_12">
     <path d="M 241.598125 43.96375 
L 257.598125 43.96375 
L 257.598125 38.36375 
L 241.598125 38.36375 
z
" style="fill: #ffffff"/>
    </g>
    <g id="text_13">
     <!-- Java 8 Mean: 9.69,    Java 11 Mean: 8.33 -->
     <g transform="translate(263.998125 43.96375) scale(0.08 -0.08)">
      <defs>
       <path id="DejaVuSans-39" d="M 703 97 
L 703 672 
Q 941 559 1184 500 
Q 1428 441 1663 441 
Q 2288 441 2617 861 
Q 2947 1281 2994 2138 
Q 2813 1869 2534 1725 
Q 2256 1581 1919 1581 
Q 1219 1581 811 2004 
Q 403 2428 403 3163 
Q 403 3881 828 4315 
Q 1253 4750 1959 4750 
Q 2769 4750 3195 4129 
Q 3622 3509 3622 2328 
Q 3622 1225 3098 567 
Q 2575 -91 1691 -91 
Q 1453 -91 1209 -44 
Q 966 3 703 97 
z
M 1959 2075 
Q 2384 2075 2632 2365 
Q 2881 2656 2881 3163 
Q 2881 3666 2632 3958 
Q 2384 4250 1959 4250 
Q 1534 4250 1286 3958 
Q 1038 3666 1038 3163 
Q 1038 2656 1286 2365 
Q 1534 2075 1959 2075 
z
" transform="scale(0.015625)"/>
       <path id="DejaVuSans-33" d="M 2597 2516 
Q 3050 2419 3304 2112 
Q 3559 1806 3559 1356 
Q 3559 666 3084 287 
Q 2609 -91 1734 -91 
Q 1441 -91 1130 -33 
Q 819 25 488 141 
L 488 750 
Q 750 597 1062 519 
Q 1375 441 1716 441 
Q 2309 441 2620 675 
Q 2931 909 2931 1356 
Q 2931 1769 2642 2001 
Q 2353 2234 1838 2234 
L 1294 2234 
L 1294 2753 
L 1863 2753 
Q 2328 2753 2575 2939 
Q 2822 3125 2822 3475 
Q 2822 3834 2567 4026 
Q 2313 4219 1838 4219 
Q 1578 4219 1281 4162 
Q 984 4106 628 3988 
L 628 4550 
Q 988 4650 1302 4700 
Q 1616 4750 1894 4750 
Q 2613 4750 3031 4423 
Q 3450 4097 3450 3541 
Q 3450 3153 3228 2886 
Q 3006 2619 2597 2516 
z
" transform="scale(0.015625)"/>
      </defs>
      <use xlink:href="#DejaVuSans-4a"/>
      <use xlink:href="#DejaVuSans-61" transform="translate(29.492188 0)"/>
      <use xlink:href="#DejaVuSans-76" transform="translate(90.771484 0)"/>
      <use xlink:href="#DejaVuSans-61" transform="translate(149.951172 0)"/>
      <use xlink:href="#DejaVuSans-20" transform="translate(211.230469 0)"/>
      <use xlink:href="#DejaVuSans-38" transform="translate(243.017578 0)"/>
      <use xlink:href="#DejaVuSans-20" transform="translate(306.640625 0)"/>
      <use xlink:href="#DejaVuSans-4d" transform="translate(338.427734 0)"/>
      <use xlink:href="#DejaVuSans-65" transform="translate(424.707031 0)"/>
      <use xlink:href="#DejaVuSans-61" transform="translate(486.230469 0)"/>
      <use xlink:href="#DejaVuSans-6e" transform="translate(547.509766 0)"/>
      <use xlink:href="#DejaVuSans-3a" transform="translate(610.888672 0)"/>
      <use xlink:href="#DejaVuSans-20" transform="translate(644.580078 0)"/>
      <use xlink:href="#DejaVuSans-39" transform="translate(676.367188 0)"/>
      <use xlink:href="#DejaVuSans-2e" transform="translate(739.990234 0)"/>
      <use xlink:href="#DejaVuSans-36" transform="translate(771.777344 0)"/>
      <use xlink:href="#DejaVuSans-39" transform="translate(835.400391 0)"/>
      <use xlink:href="#DejaVuSans-2c" transform="translate(899.023438 0)"/>
      <use xlink:href="#DejaVuSans-20" transform="translate(930.810547 0)"/>
      <use xlink:href="#DejaVuSans-20" transform="translate(962.597656 0)"/>
      <use xlink:href="#DejaVuSans-20" transform="translate(994.384766 0)"/>
      <use xlink:href="#DejaVuSans-20" transform="translate(1026.171875 0)"/>
      <use xlink:href="#DejaVuSans-4a" transform="translate(1057.958984 0)"/>
      <use xlink:href="#DejaVuSans-61" transform="translate(1087.451172 0)"/>
      <use xlink:href="#DejaVuSans-76" transform="translate(1148.730469 0)"/>
      <use xlink:href="#DejaVuSans-61" transform="translate(1207.910156 0)"/>
      <use xlink:href="#DejaVuSans-20" transform="translate(1269.189453 0)"/>
      <use xlink:href="#DejaVuSans-31" transform="translate(1300.976562 0)"/>
      <use xlink:href="#DejaVuSans-31" transform="translate(1364.599609 0)"/>
      <use xlink:href="#DejaVuSans-20" transform="translate(1428.222656 0)"/>
      <use xlink:href="#DejaVuSans-4d" transform="translate(1460.009766 0)"/>
      <use xlink:href="#DejaVuSans-65" transform="translate(1546.289062 0)"/>
      <use xlink:href="#DejaVuSans-61" transform="translate(1607.8125 0)"/>
      <use xlink:href="#DejaVuSans-6e" transform="translate(1669.091797 0)"/>
      <use xlink:href="#DejaVuSans-3a" transform="translate(1732.470703 0)"/>
      <use xlink:href="#DejaVuSans-20" transform="translate(1766.162109 0)"/>
      <use xlink:href="#DejaVuSans-38" transform="translate(1797.949219 0)"/>
      <use xlink:href="#DejaVuSans-2e" transform="translate(1861.572266 0)"/>
      <use xlink:href="#DejaVuSans-33" transform="translate(1893.359375 0)"/>
      <use xlink:href="#DejaVuSans-33" transform="translate(1956.982422 0)"/>
     </g>
    </g>
    <g id="patch_13">
     <path d="M 241.598125 55.70625 
L 257.598125 55.70625 
L 257.598125 50.10625 
L 241.598125 50.10625 
z
" style="fill: #ffffff"/>
    </g>
    <g id="text_14">
     <!-- Java 8 Range: 16,    Java 11 Range: 19 -->
     <g transform="translate(263.998125 55.70625) scale(0.08 -0.08)">
      <defs>
       <path id="DejaVuSans-67" d="M 2906 1791 
Q 2906 2416 2648 2759 
Q 2391 3103 1925 3103 
Q 1463 3103 1205 2759 
Q 947 2416 947 1791 
Q 947 1169 1205 825 
Q 1463 481 1925 481 
Q 2391 481 2648 825 
Q 2906 1169 2906 1791 
z
M 3481 434 
Q 3481 -459 3084 -895 
Q 2688 -1331 1869 -1331 
Q 1566 -1331 1297 -1286 
Q 1028 -1241 775 -1147 
L 775 -588 
Q 1028 -725 1275 -790 
Q 1522 -856 1778 -856 
Q 2344 -856 2625 -561 
Q 2906 -266 2906 331 
L 2906 616 
Q 2728 306 2450 153 
Q 2172 0 1784 0 
Q 1141 0 747 490 
Q 353 981 353 1791 
Q 353 2603 747 3093 
Q 1141 3584 1784 3584 
Q 2172 3584 2450 3431 
Q 2728 3278 2906 2969 
L 2906 3500 
L 3481 3500 
L 3481 434 
z
" transform="scale(0.015625)"/>
      </defs>
      <use xlink:href="#DejaVuSans-4a"/>
      <use xlink:href="#DejaVuSans-61" transform="translate(29.492188 0)"/>
      <use xlink:href="#DejaVuSans-76" transform="translate(90.771484 0)"/>
      <use xlink:href="#DejaVuSans-61" transform="translate(149.951172 0)"/>
      <use xlink:href="#DejaVuSans-20" transform="translate(211.230469 0)"/>
      <use xlink:href="#DejaVuSans-38" transform="translate(243.017578 0)"/>
      <use xlink:href="#DejaVuSans-20" transform="translate(306.640625 0)"/>
      <use xlink:href="#DejaVuSans-52" transform="translate(338.427734 0)"/>
      <use xlink:href="#DejaVuSans-61" transform="translate(405.660156 0)"/>
      <use xlink:href="#DejaVuSans-6e" transform="translate(466.939453 0)"/>
      <use xlink:href="#DejaVuSans-67" transform="translate(530.318359 0)"/>
      <use xlink:href="#DejaVuSans-65" transform="translate(593.794922 0)"/>
      <use xlink:href="#DejaVuSans-3a" transform="translate(655.318359 0)"/>
      <use xlink:href="#DejaVuSans-20" transform="translate(689.009766 0)"/>
      <use xlink:href="#DejaVuSans-31" transform="translate(720.796875 0)"/>
      <use xlink:href="#DejaVuSans-36" transform="translate(784.419922 0)"/>
      <use xlink:href="#DejaVuSans-2c" transform="translate(848.042969 0)"/>
      <use xlink:href="#DejaVuSans-20" transform="translate(879.830078 0)"/>
      <use xlink:href="#DejaVuSans-20" transform="translate(911.617188 0)"/>
      <use xlink:href="#DejaVuSans-20" transform="translate(943.404297 0)"/>
      <use xlink:href="#DejaVuSans-20" transform="translate(975.191406 0)"/>
      <use xlink:href="#DejaVuSans-4a" transform="translate(1006.978516 0)"/>
      <use xlink:href="#DejaVuSans-61" transform="translate(1036.470703 0)"/>
      <use xlink:href="#DejaVuSans-76" transform="translate(1097.75 0)"/>
      <use xlink:href="#DejaVuSans-61" transform="translate(1156.929688 0)"/>
      <use xlink:href="#DejaVuSans-20" transform="translate(1218.208984 0)"/>
      <use xlink:href="#DejaVuSans-31" transform="translate(1249.996094 0)"/>
      <use xlink:href="#DejaVuSans-31" transform="translate(1313.619141 0)"/>
      <use xlink:href="#DejaVuSans-20" transform="translate(1377.242188 0)"/>
      <use xlink:href="#DejaVuSans-52" transform="translate(1409.029297 0)"/>
      <use xlink:href="#DejaVuSans-61" transform="translate(1476.261719 0)"/>
      <use xlink:href="#DejaVuSans-6e" transform="translate(1537.541016 0)"/>
      <use xlink:href="#DejaVuSans-67" transform="translate(1600.919922 0)"/>
      <use xlink:href="#DejaVuSans-65" transform="translate(1664.396484 0)"/>
      <use xlink:href="#DejaVuSans-3a" transform="translate(1725.919922 0)"/>
      <use xlink:href="#DejaVuSans-20" transform="translate(1759.611328 0)"/>
      <use xlink:href="#DejaVuSans-31" transform="translate(1791.398438 0)"/>
      <use xlink:href="#DejaVuSans-39" transform="translate(1855.021484 0)"/>
     </g>
    </g>
   </g>
  </g>
 </g>
 <defs>
  <clipPath id="p06d131c635">
   <rect x="51.228125" y="7.2" width="386.04" height="125.4"/>
  </clipPath>
 </defs>
</svg>
